<svg width="16" height="20" viewBox="0 0 16 20" fill="none" xmlns="http://www.w3.org/2000/svg">
<path d="M7.31145 19.1935C5.34073 19.1935 3.73254 18.9256 2.4869 18.3898C1.24125 17.854 0.618432 17.1622 0.618432 16.3145C0.618432 15.9306 0.753222 15.5748 1.0228 15.2469C1.29238 14.919 1.66886 14.6351 2.15225 14.3952L3.90916 15.8107C3.74184 15.8747 3.56057 15.9466 3.36536 16.0266C3.17014 16.1066 3.01676 16.2025 2.90521 16.3145C3.1469 16.5704 3.70466 16.7943 4.57847 16.9863C5.45228 17.1782 6.36327 17.2742 7.31145 17.2742C8.25962 17.2742 9.17527 17.1782 10.0584 16.9863C10.9415 16.7943 11.5039 16.5704 11.7456 16.3145C11.6154 16.1865 11.4481 16.0826 11.2436 16.0026C11.0391 15.9226 10.8439 15.8507 10.658 15.7867L12.387 14.3472C12.9076 14.6031 13.3073 14.895 13.5861 15.2229C13.865 15.5508 14.0045 15.9146 14.0045 16.3145C14.0045 17.1622 13.3816 17.854 12.136 18.3898C10.8904 18.9256 9.28217 19.1935 7.31145 19.1935ZM7.33933 13.9153C9.17991 12.7478 10.565 11.5762 11.4946 10.4006C12.4242 9.225 12.889 8.04541 12.889 6.86183C12.889 5.2304 12.2847 3.99884 11.0763 3.16713C9.86781 2.33542 8.61287 1.91957 7.31145 1.91957C6.01003 1.91957 4.75509 2.33542 3.54663 3.16713C2.33817 3.99884 1.73393 5.2304 1.73393 6.86183C1.73393 7.93345 2.18943 9.04906 3.10043 10.2086C4.01142 11.3682 5.42439 12.6038 7.33933 13.9153ZM7.31145 16.3145C4.69002 14.6511 2.73324 13.0357 1.44112 11.4682C0.148992 9.90076 -0.49707 8.3653 -0.49707 6.86183C-0.49707 5.72623 -0.260026 4.73058 0.214063 3.87488C0.688151 3.01918 1.29703 2.30343 2.0407 1.72764C2.78437 1.15184 3.62099 0.719991 4.55058 0.432092C5.48016 0.144193 6.40045 0.000244141 7.31145 0.000244141C8.22244 0.000244141 9.14273 0.144193 10.0723 0.432092C11.0019 0.719991 11.8385 1.15184 12.5822 1.72764C13.3259 2.30343 13.9347 3.01918 14.4088 3.87488C14.8829 4.73058 15.12 5.72623 15.12 6.86183C15.12 8.3653 14.4739 9.90076 13.1818 11.4682C11.8897 13.0357 9.93288 14.6511 7.31145 16.3145ZM7.31145 8.6372C7.92497 8.6372 8.45019 8.44927 8.88709 8.0734C9.324 7.69753 9.54245 7.24569 9.54245 6.71788C9.54245 6.19006 9.324 5.73822 8.88709 5.36236C8.45019 4.98649 7.92497 4.79855 7.31145 4.79855C6.69792 4.79855 6.17271 4.98649 5.7358 5.36236C5.29889 5.73822 5.08044 6.19006 5.08044 6.71788C5.08044 7.24569 5.29889 7.69753 5.7358 8.0734C6.17271 8.44927 6.69792 8.6372 7.31145 8.6372Z" fill="white"/>
</svg>
