<svg width="26" height="26" viewBox="0 0 26 26" fill="none" xmlns="http://www.w3.org/2000/svg">
<path d="M13 21.125C13.5208 21.125 13.9635 20.9427 14.3281 20.5781C14.6927 20.2135 14.875 19.7708 14.875 19.25H11.125C11.125 19.7708 11.3073 20.2135 11.6719 20.5781C12.0365 20.9427 12.4792 21.125 13 21.125ZM6.75 18H19.25V15.5H18V12.25C18 10.9792 17.6719 9.81771 17.0156 8.76562C16.3594 7.71354 15.4375 7.04167 14.25 6.75V6.125C14.25 5.77083 14.1302 5.47396 13.8906 5.23438C13.651 4.99479 13.3542 4.875 13 4.875C12.6458 4.875 12.349 4.99479 12.1094 5.23438C11.8698 5.47396 11.75 5.77083 11.75 6.125V6.75C10.5625 7.04167 9.64062 7.71354 8.98438 8.76562C8.32812 9.81771 8 10.9792 8 12.25V15.5H6.75V18ZM13 25.5C11.2708 25.5 9.64583 25.1719 8.125 24.5156C6.60417 23.8594 5.28125 22.9688 4.15625 21.8438C3.03125 20.7188 2.14063 19.3958 1.48438 17.875C0.828125 16.3542 0.5 14.7292 0.5 13C0.5 11.2708 0.828125 9.64583 1.48438 8.125C2.14063 6.60417 3.03125 5.28125 4.15625 4.15625C5.28125 3.03125 6.60417 2.14063 8.125 1.48438C9.64583 0.828125 11.2708 0.5 13 0.5C14.7292 0.5 16.3542 0.828125 17.875 1.48438C19.3958 2.14063 20.7188 3.03125 21.8438 4.15625C22.9688 5.28125 23.8594 6.60417 24.5156 8.125C25.1719 9.64583 25.5 11.2708 25.5 13C25.5 14.7292 25.1719 16.3542 24.5156 17.875C23.8594 19.3958 22.9688 20.7188 21.8438 21.8438C20.7188 22.9688 19.3958 23.8594 17.875 24.5156C16.3542 25.1719 14.7292 25.5 13 25.5Z" fill="white"/>
</svg>
