<svg width="16" height="20" viewBox="0 0 16 20" fill="none" xmlns="http://www.w3.org/2000/svg">
<path d="M7.80852 19.1932C5.8378 19.1932 4.22961 18.9253 2.98397 18.3895C1.73832 17.8537 1.1155 17.162 1.1155 16.3143C1.1155 15.9304 1.25029 15.5745 1.51987 15.2466C1.78945 14.9187 2.16593 14.6348 2.64932 14.3949L4.40623 15.8104C4.23891 15.8744 4.05764 15.9464 3.86243 16.0264C3.66721 16.1063 3.51383 16.2023 3.40228 16.3143C3.64397 16.5702 4.20173 16.7941 5.07554 16.986C5.94935 17.178 6.86034 17.2739 7.80852 17.2739C8.75669 17.2739 9.67234 17.178 10.5554 16.986C11.4385 16.7941 12.0009 16.5702 12.2426 16.3143C12.1125 16.1863 11.9452 16.0823 11.7407 16.0024C11.5362 15.9224 11.3409 15.8504 11.155 15.7864L12.8841 14.3469C13.4046 14.6029 13.8043 14.8948 14.0832 15.2226C14.3621 15.5505 14.5015 15.9144 14.5015 16.3143C14.5015 17.162 13.8787 17.8537 12.6331 18.3895C11.3874 18.9253 9.77924 19.1932 7.80852 19.1932ZM7.8364 13.9151C9.67698 12.7475 11.0621 11.5759 11.9917 10.4003C12.9212 9.22475 13.386 8.04517 13.386 6.86158C13.386 5.23016 12.7818 3.99859 11.5733 3.16688C10.3649 2.33518 9.10994 1.91932 7.80852 1.91932C6.5071 1.91932 5.25216 2.33518 4.0437 3.16688C2.83524 3.99859 2.231 5.23016 2.231 6.86158C2.231 7.93321 2.6865 9.04881 3.5975 10.2084C4.50849 11.368 5.92146 12.6036 7.8364 13.9151ZM7.80852 16.3143C5.18709 14.6508 3.23031 13.0354 1.93819 11.468C0.646062 9.90051 0 8.36506 0 6.86158C0 5.72598 0.237044 4.73033 0.711133 3.87464C1.18522 3.01894 1.7941 2.30319 2.53777 1.72739C3.28144 1.15159 4.11806 0.719747 5.04765 0.431848C5.97723 0.143949 6.89752 0 7.80852 0C8.71951 0 9.6398 0.143949 10.5694 0.431848C11.499 0.719747 12.3356 1.15159 13.0793 1.72739C13.8229 2.30319 14.4318 3.01894 14.9059 3.87464C15.38 4.73033 15.617 5.72598 15.617 6.86158C15.617 8.36506 14.971 9.90051 13.6788 11.468C12.3867 13.0354 10.4299 14.6508 7.80852 16.3143ZM7.80852 8.63696C8.42204 8.63696 8.94726 8.44903 9.38416 8.07316C9.82107 7.69729 10.0395 7.24545 10.0395 6.71764C10.0395 6.18982 9.82107 5.73798 9.38416 5.36211C8.94726 4.98624 8.42204 4.79831 7.80852 4.79831C7.19499 4.79831 6.66978 4.98624 6.23287 5.36211C5.79597 5.73798 5.57751 6.18982 5.57751 6.71764C5.57751 7.24545 5.79597 7.69729 6.23287 8.07316C6.66978 8.44903 7.19499 8.63696 7.80852 8.63696Z" fill="#082A45"/>
</svg>
