<svg width="21" height="19" viewBox="0 0 21 19" fill="none" xmlns="http://www.w3.org/2000/svg">
<path d="M10.1846 18.3832L8.73457 17.0832C7.05124 15.5665 5.65957 14.2582 4.55957 13.1582C3.45957 12.0582 2.58457 11.0707 1.93457 10.1957C1.28457 9.3207 0.830404 8.51654 0.57207 7.7832C0.313737 7.04987 0.18457 6.29987 0.18457 5.5332C0.18457 3.96654 0.70957 2.6582 1.75957 1.6082C2.80957 0.558203 4.1179 0.0332031 5.68457 0.0332031C6.55124 0.0332031 7.37624 0.216536 8.15957 0.583203C8.9429 0.94987 9.6179 1.46654 10.1846 2.1332C10.7512 1.46654 11.4262 0.94987 12.2096 0.583203C12.9929 0.216536 13.8179 0.0332031 14.6846 0.0332031C16.2512 0.0332031 17.5596 0.558203 18.6096 1.6082C19.6596 2.6582 20.1846 3.96654 20.1846 5.5332C20.1846 6.29987 20.0554 7.04987 19.7971 7.7832C19.5387 8.51654 19.0846 9.3207 18.4346 10.1957C17.7846 11.0707 16.9096 12.0582 15.8096 13.1582C14.7096 14.2582 13.3179 15.5665 11.6346 17.0832L10.1846 18.3832Z" fill="#082A45"/>
</svg>
