<svg width="19" height="21" viewBox="0 0 19 21" fill="none" xmlns="http://www.w3.org/2000/svg">
<path d="M9.5 21V19H16.5V18H12.5V10H16.5V9C16.5 7.06667 15.8167 5.41667 14.45 4.05C13.0833 2.68333 11.4333 2 9.5 2C7.56667 2 5.91667 2.68333 4.55 4.05C3.18333 5.41667 2.5 7.06667 2.5 9V10H6.5V18H2.5C1.95 18 1.47917 17.8042 1.0875 17.4125C0.695833 17.0208 0.5 16.55 0.5 16V9C0.5 7.76667 0.7375 6.60417 1.2125 5.5125C1.6875 4.42083 2.33333 3.46667 3.15 2.65C3.96667 1.83333 4.92083 1.1875 6.0125 0.7125C7.10417 0.2375 8.26667 0 9.5 0C10.7333 0 11.8958 0.2375 12.9875 0.7125C14.0792 1.1875 15.0333 1.83333 15.85 2.65C16.6667 3.46667 17.3125 4.42083 17.7875 5.5125C18.2625 6.60417 18.5 7.76667 18.5 9V19C18.5 19.55 18.3042 20.0208 17.9125 20.4125C17.5208 20.8042 17.05 21 16.5 21H9.5Z" fill="#082A45"/>
</svg>
