<svg width="18" height="22" viewBox="0 0 18 22" fill="none" xmlns="http://www.w3.org/2000/svg">
<path d="M0 21.0898V5.08984H4C4 3.70651 4.4875 2.52734 5.4625 1.55234C6.4375 0.577344 7.61667 0.0898438 9 0.0898438C10.3833 0.0898438 11.5625 0.577344 12.5375 1.55234C13.5125 2.52734 14 3.70651 14 5.08984H18V21.0898H0ZM2 19.0898H16V7.08984H2V19.0898ZM9 13.0898C10.3833 13.0898 11.5625 12.6023 12.5375 11.6273C13.5125 10.6523 14 9.47318 14 8.08984H12C12 8.92318 11.7083 9.63151 11.125 10.2148C10.5417 10.7982 9.83333 11.0898 9 11.0898C8.16667 11.0898 7.45833 10.7982 6.875 10.2148C6.29167 9.63151 6 8.92318 6 8.08984H4C4 9.47318 4.4875 10.6523 5.4625 11.6273C6.4375 12.6023 7.61667 13.0898 9 13.0898ZM6 5.08984H12C12 4.25651 11.7083 3.54818 11.125 2.96484C10.5417 2.38151 9.83333 2.08984 9 2.08984C8.16667 2.08984 7.45833 2.38151 6.875 2.96484C6.29167 3.54818 6 4.25651 6 5.08984Z" fill="#87848A"/>
</svg>
