<svg width="17" height="21" viewBox="0 0 17 21" fill="none" xmlns="http://www.w3.org/2000/svg">
<path d="M14.934 8.41415C14.934 6.65803 14.2364 4.97385 12.9946 3.73209C11.7529 2.49033 10.0687 1.79272 8.31258 1.79272C6.55647 1.79272 4.87229 2.49033 3.63053 3.73209C2.38877 4.97385 1.69116 6.65803 1.69116 8.41415C1.69116 11.1304 3.86446 14.6707 8.31258 18.9113C12.7607 14.6707 14.934 11.1304 14.934 8.41415ZM8.31258 20.9213C2.91686 16.017 0.219727 11.847 0.219727 8.41415C0.219727 6.26779 1.07236 4.20934 2.59007 2.69163C4.10777 1.17393 6.16622 0.321289 8.31258 0.321289C10.4589 0.321289 12.5174 1.17393 14.0351 2.69163C15.5528 4.20934 16.4054 6.26779 16.4054 8.41415C16.4054 11.847 13.7083 16.017 8.31258 20.9213Z" fill="white"/>
<path d="M8.31285 10.622C8.89822 10.622 9.45962 10.3895 9.87354 9.97559C10.2875 9.56167 10.52 9.00027 10.52 8.4149C10.52 7.82953 10.2875 7.26813 9.87354 6.85421C9.45962 6.44029 8.89822 6.20776 8.31285 6.20776C7.72748 6.20776 7.16608 6.44029 6.75216 6.85421C6.33824 7.26813 6.10571 7.82953 6.10571 8.4149C6.10571 9.00027 6.33824 9.56167 6.75216 9.97559C7.16608 10.3895 7.72748 10.622 8.31285 10.622ZM8.31285 12.0935C7.33723 12.0935 6.40157 11.7059 5.71171 11.016C5.02184 10.3262 4.63428 9.39052 4.63428 8.4149C4.63428 7.43928 5.02184 6.50362 5.71171 5.81376C6.40157 5.12389 7.33723 4.73633 8.31285 4.73633C9.28847 4.73633 10.2241 5.12389 10.914 5.81376C11.6039 6.50362 11.9914 7.43928 11.9914 8.4149C11.9914 9.39052 11.6039 10.3262 10.914 11.016C10.2241 11.7059 9.28847 12.0935 8.31285 12.0935Z" fill="white"/>
</svg>
