<svg width="13" height="17" viewBox="0 0 13 17" fill="none" xmlns="http://www.w3.org/2000/svg">
<path d="M6.88268 10.4198C6.16946 10.4198 5.56322 10.1702 5.06396 9.67095C4.5647 9.17169 4.31507 8.56545 4.31507 7.85223V2.71702C4.31507 2.00379 4.5647 1.39755 5.06396 0.898299C5.56322 0.399042 6.16946 0.149414 6.88268 0.149414C7.5959 0.149414 8.20214 0.399042 8.7014 0.898299C9.20065 1.39755 9.45028 2.00379 9.45028 2.71702V7.85223C9.45028 8.56545 9.20065 9.17169 8.7014 9.67095C8.20214 10.1702 7.5959 10.4198 6.88268 10.4198ZM6.02681 16.4109V13.7791C4.54331 13.5794 3.31656 12.9161 2.34658 11.7892C1.37659 10.6623 0.891602 9.34999 0.891602 7.85223H2.60334C2.60334 9.03618 3.02057 10.0454 3.85505 10.8799C4.68952 11.7143 5.69873 12.1316 6.88268 12.1316C8.06663 12.1316 9.07584 11.7143 9.91031 10.8799C10.7448 10.0454 11.162 9.03618 11.162 7.85223H12.8738C12.8738 9.34999 12.3888 10.6623 11.4188 11.7892C10.4488 12.9161 9.22205 13.5794 7.73855 13.7791V16.4109H6.02681ZM6.88268 8.70809C7.12517 8.70809 7.32844 8.62607 7.49249 8.46203C7.65653 8.29799 7.73855 8.09472 7.73855 7.85223V2.71702C7.73855 2.47452 7.65653 2.27125 7.49249 2.10721C7.32844 1.94317 7.12517 1.86115 6.88268 1.86115C6.64018 1.86115 6.43691 1.94317 6.27287 2.10721C6.10883 2.27125 6.02681 2.47452 6.02681 2.71702V7.85223C6.02681 8.09472 6.10883 8.29799 6.27287 8.46203C6.43691 8.62607 6.64018 8.70809 6.88268 8.70809Z" fill="#726F7B" fill-opacity="0.968627"/>
</svg>
