<svg width="19" height="17" viewBox="0 0 19 17" fill="none" xmlns="http://www.w3.org/2000/svg">
<path d="M15.5835 9.35123H5.23273V7.63646H15.5835L14.263 6.3075L15.4557 5.06429L18.8634 8.49384L15.4557 11.9234L14.263 10.6802L15.5835 9.35123ZM11.1961 5.92168V2.49212H2.67698V14.4956H11.1961V11.066H12.9V14.4956C12.9 14.9671 12.7331 15.3708 12.3995 15.7066C12.0658 16.0424 11.6647 16.2103 11.1961 16.2103H2.67698C2.20842 16.2103 1.80731 16.0424 1.47365 15.7066C1.13998 15.3708 0.973145 14.9671 0.973145 14.4956V2.49212C0.973145 2.02056 1.13998 1.61687 1.47365 1.28106C1.80731 0.945249 2.20842 0.777344 2.67698 0.777344H11.1961C11.6647 0.777344 12.0658 0.945249 12.3995 1.28106C12.7331 1.61687 12.9 2.02056 12.9 2.49212V5.92168H11.1961Z" fill="#082A45"/>
</svg>
