<svg width="21" height="19" viewBox="0 0 21 19" fill="none" xmlns="http://www.w3.org/2000/svg">
<path d="M5.26739 18.6212C4.78094 18.6212 4.37429 18.4388 4.04746 18.0739C3.72062 17.7091 3.58761 17.2834 3.64841 16.797H7.36523L8.27733 13.1485H10.1015L11.4697 7.67583H4.78854L5.03937 5.62357C5.10018 5.16751 5.3054 4.78746 5.65504 4.48343C6.00468 4.17939 6.40752 4.02737 6.86357 4.02737H8.66497C8.78659 2.88722 9.17803 1.99411 9.8393 1.34803C10.5006 0.701947 11.4013 0.378906 12.5414 0.378906C13.5143 0.378906 14.3238 0.739952 14.9699 1.46204C15.6159 2.18413 15.9314 3.03924 15.9162 4.02737H18.242C18.7893 4.02737 19.2454 4.23259 19.6102 4.64305C19.975 5.0535 20.1194 5.53236 20.0434 6.07963L18.6753 17.025C18.6145 17.4811 18.4131 17.8611 18.071 18.1652C17.729 18.4692 17.3299 18.6212 16.8739 18.6212H5.26739ZM0.912109 14.9728L1.36816 13.1485H6.38472L5.92867 14.9728H0.912109ZM2.73631 11.3243L3.19236 9.50006H9.12102L8.66497 11.3243H2.73631ZM10.4892 4.02737H14.1148C14.13 3.5257 13.959 3.09625 13.6017 2.739C13.2445 2.38176 12.815 2.20314 12.3134 2.20314C11.7813 2.20314 11.3595 2.36656 11.0478 2.6934C10.7362 3.02024 10.55 3.4649 10.4892 4.02737Z" fill="white"/>
</svg>
