<svg width="27" height="26" viewBox="0 0 27 26" fill="none" xmlns="http://www.w3.org/2000/svg">
<g clip-path="url(#clip0_476_1451)">
<g clip-path="url(#clip1_476_1451)">
<g clip-path="url(#clip2_476_1451)">
<path d="M0.500244 2.4113V24.7142C0.500244 25.0574 0.878015 25.2688 1.17059 25.088L4.0963 23.2875C4.30414 23.1595 4.54344 23.0918 4.78754 23.0918C5.03163 23.0918 5.27093 23.1595 5.47878 23.2875L8.38279 25.0751C8.59063 25.2031 8.82993 25.2709 9.07403 25.2709C9.31812 25.2709 9.55742 25.2031 9.76527 25.0751L12.6693 23.2883C12.8772 23.1604 13.1164 23.0927 13.3605 23.0927C13.6046 23.0927 13.8439 23.1604 14.0518 23.2883L16.9558 25.0751C17.1636 25.2031 17.4029 25.2709 17.647 25.2709C17.8911 25.2709 18.1304 25.2031 18.3382 25.0751L21.2431 23.2883C21.4509 23.1603 21.6902 23.0926 21.9343 23.0926C22.1784 23.0926 22.4177 23.1603 22.6255 23.2883L25.5513 25.0888C25.6179 25.1296 25.6942 25.152 25.7723 25.1536C25.8504 25.1551 25.9276 25.1359 25.9958 25.0977C26.064 25.0596 26.1208 25.0039 26.1603 24.9365C26.1999 24.8691 26.2207 24.7924 26.2208 24.7142V0H2.91155C2.27203 0 1.6587 0.254047 1.2065 0.706254C0.754291 1.15846 0.500244 1.77178 0.500244 2.4113Z" fill="#082A45"/>
</g>
</g>
</g>
<defs>
<clipPath id="clip0_476_1451">
<rect width="25.7205" height="25.7205" fill="white" transform="translate(0.500244)"/>
</clipPath>
<clipPath id="clip1_476_1451">
<rect width="25.7205" height="25.7205" fill="white" transform="translate(0.500244)"/>
</clipPath>
<clipPath id="clip2_476_1451">
<rect width="25.7205" height="25.7205" fill="white" transform="translate(0.500244)"/>
</clipPath>
</defs>
</svg>
