<svg width="21" height="21" viewBox="0 0 21 21" fill="none" xmlns="http://www.w3.org/2000/svg">
<path d="M9.6 17.5H11.35V16.25C12.1833 16.1 12.9 15.775 13.5 15.275C14.1 14.775 14.4 14.0333 14.4 13.05C14.4 12.35 14.2 11.7083 13.8 11.125C13.4 10.5417 12.6 10.0333 11.4 9.6C10.4 9.26667 9.70833 8.975 9.325 8.725C8.94167 8.475 8.75 8.13333 8.75 7.7C8.75 7.26667 8.90417 6.925 9.2125 6.675C9.52083 6.425 9.96667 6.3 10.55 6.3C11.0833 6.3 11.5 6.42917 11.8 6.6875C12.1 6.94583 12.3167 7.26667 12.45 7.65L14.05 7C13.8667 6.41667 13.5292 5.90833 13.0375 5.475C12.5458 5.04167 12 4.8 11.4 4.75V3.5H9.65V4.75C8.81667 4.93333 8.16667 5.3 7.7 5.85C7.23333 6.4 7 7.01667 7 7.7C7 8.48333 7.22917 9.11667 7.6875 9.6C8.14583 10.0833 8.86667 10.5 9.85 10.85C10.9 11.2333 11.6292 11.575 12.0375 11.875C12.4458 12.175 12.65 12.5667 12.65 13.05C12.65 13.6 12.4542 14.0042 12.0625 14.2625C11.6708 14.5208 11.2 14.65 10.65 14.65C10.1 14.65 9.6125 14.4792 9.1875 14.1375C8.7625 13.7958 8.45 13.2833 8.25 12.6L6.6 13.25C6.83333 14.05 7.19583 14.6958 7.6875 15.1875C8.17917 15.6792 8.81667 16.0167 9.6 16.2V17.5ZM10.5 20.5C9.11667 20.5 7.81667 20.2375 6.6 19.7125C5.38333 19.1875 4.325 18.475 3.425 17.575C2.525 16.675 1.8125 15.6167 1.2875 14.4C0.7625 13.1833 0.5 11.8833 0.5 10.5C0.5 9.11667 0.7625 7.81667 1.2875 6.6C1.8125 5.38333 2.525 4.325 3.425 3.425C4.325 2.525 5.38333 1.8125 6.6 1.2875C7.81667 0.7625 9.11667 0.5 10.5 0.5C11.8833 0.5 13.1833 0.7625 14.4 1.2875C15.6167 1.8125 16.675 2.525 17.575 3.425C18.475 4.325 19.1875 5.38333 19.7125 6.6C20.2375 7.81667 20.5 9.11667 20.5 10.5C20.5 11.8833 20.2375 13.1833 19.7125 14.4C19.1875 15.6167 18.475 16.675 17.575 17.575C16.675 18.475 15.6167 19.1875 14.4 19.7125C13.1833 20.2375 11.8833 20.5 10.5 20.5Z" fill="#AD8724"/>
</svg>
