<svg width="21" height="17" viewBox="0 0 21 17" fill="none" xmlns="http://www.w3.org/2000/svg">
<path d="M10.4999 6.76371L7.30756 3.57131L10.4999 0.378906L13.6923 3.57131L10.4999 6.76371ZM0.466797 16.797V13.1485C0.466797 12.6317 0.645417 12.1984 1.00266 11.8488C1.3599 11.4991 1.78934 11.3243 2.291 11.3243H5.27813C5.58217 11.3243 5.871 11.4003 6.14463 11.5523C6.41826 11.7043 6.63868 11.9096 6.8059 12.168C7.24675 12.7609 7.79021 13.2245 8.43628 13.559C9.08236 13.8934 9.77023 14.0606 10.4999 14.0606C11.2448 14.0606 11.9403 13.8934 12.5863 13.559C13.2324 13.2245 13.7683 12.7609 14.1939 12.168C14.3915 11.9096 14.6234 11.7043 14.8894 11.5523C15.1554 11.4003 15.4329 11.3243 15.7217 11.3243H18.7088C19.2257 11.3243 19.6589 11.4991 20.0086 11.8488C20.3582 12.1984 20.533 12.6317 20.533 13.1485V16.797H14.1483V14.7219C13.6163 15.102 13.0424 15.3908 12.4267 15.5884C11.8111 15.7861 11.1688 15.8849 10.4999 15.8849C9.84624 15.8849 9.20777 15.7823 8.5845 15.577C7.96123 15.3718 7.38357 15.0792 6.85151 14.6991V16.797H0.466797ZM3.2031 10.4122C2.44302 10.4122 1.79694 10.1461 1.26489 9.61407C0.732826 9.08201 0.466797 8.43593 0.466797 7.67583C0.466797 6.90053 0.732826 6.25065 1.26489 5.72618C1.79694 5.20172 2.44302 4.93948 3.2031 4.93948C3.97839 4.93948 4.62826 5.20172 5.15272 5.72618C5.67718 6.25065 5.93941 6.90053 5.93941 7.67583C5.93941 8.43593 5.67718 9.08201 5.15272 9.61407C4.62826 10.1461 3.97839 10.4122 3.2031 10.4122ZM17.7967 10.4122C17.0366 10.4122 16.3906 10.1461 15.8585 9.61407C15.3265 9.08201 15.0604 8.43593 15.0604 7.67583C15.0604 6.90053 15.3265 6.25065 15.8585 5.72618C16.3906 5.20172 17.0366 4.93948 17.7967 4.93948C18.572 4.93948 19.2219 5.20172 19.7463 5.72618C20.2708 6.25065 20.533 6.90053 20.533 7.67583C20.533 8.43593 20.2708 9.08201 19.7463 9.61407C19.2219 10.1461 18.572 10.4122 17.7967 10.4122Z" fill="#082A45"/>
</svg>
