<svg width="18" height="16" viewBox="0 0 18 16" fill="none" xmlns="http://www.w3.org/2000/svg">
<path d="M9.08041 12.9872C10.1502 12.9872 11.0596 12.6128 11.8085 11.8639C12.5574 11.115 12.9318 10.2057 12.9318 9.13583C12.9318 8.06599 12.5574 7.15663 11.8085 6.40775C11.0596 5.65887 10.1502 5.28442 9.08041 5.28442C8.01057 5.28442 7.10121 5.65887 6.35233 6.40775C5.60345 7.15663 5.229 8.06599 5.229 9.13583C5.229 10.2057 5.60345 11.115 6.35233 11.8639C7.10121 12.6128 8.01057 12.9872 9.08041 12.9872ZM9.08041 11.2755C8.4813 11.2755 7.97491 11.0687 7.56124 10.655C7.14757 10.2413 6.94074 9.73494 6.94074 9.13583C6.94074 8.53672 7.14757 8.03033 7.56124 7.61666C7.97491 7.20299 8.4813 6.99616 9.08041 6.99616C9.67952 6.99616 10.1859 7.20299 10.5996 7.61666C11.0132 8.03033 11.2201 8.53672 11.2201 9.13583C11.2201 9.73494 11.0132 10.2413 10.5996 10.655C10.1859 11.0687 9.67952 11.2755 9.08041 11.2755ZM2.23346 15.9828C1.76274 15.9828 1.35977 15.8152 1.02455 15.48C0.689336 15.1447 0.521729 14.7418 0.521729 14.271V4.00062C0.521729 3.52989 0.689336 3.12692 1.02455 2.79171C1.35977 2.45649 1.76274 2.28888 2.23346 2.28888H4.92945L6.51281 0.577148H11.648L13.2314 2.28888H15.9274C16.3981 2.28888 16.8011 2.45649 17.1363 2.79171C17.4715 3.12692 17.6391 3.52989 17.6391 4.00062V14.271C17.6391 14.7418 17.4715 15.1447 17.1363 15.48C16.8011 15.8152 16.3981 15.9828 15.9274 15.9828H2.23346ZM2.23346 14.271H15.9274V4.00062H12.4611L10.8991 2.28888H7.26169L5.69973 4.00062H2.23346V14.271Z" fill="#726F7B"/>
</svg>
