<svg width="19" height="19" viewBox="0 0 19 19" fill="none" xmlns="http://www.w3.org/2000/svg">
<path d="M11.3241 12.2364C11.5826 12.2364 11.8068 12.1414 11.9968 11.9514C12.1868 11.7613 12.2818 11.5371 12.2818 11.2787C12.2818 11.0203 12.1868 10.796 11.9968 10.606C11.8068 10.416 11.5826 10.321 11.3241 10.321C11.0657 10.321 10.8415 10.416 10.6515 10.606C10.4614 10.796 10.3664 11.0203 10.3664 11.2787C10.3664 11.5371 10.4614 11.7613 10.6515 11.9514C10.8415 12.1414 11.0657 12.2364 11.3241 12.2364ZM10.64 9.31764H12.0082C12.0082 8.87678 12.0538 8.55374 12.145 8.34851C12.2362 8.14329 12.4491 7.87345 12.7835 7.53901C13.2395 7.08295 13.5436 6.71431 13.6956 6.43307C13.8476 6.15184 13.9236 5.8212 13.9236 5.44115C13.9236 4.75706 13.6842 4.19839 13.2053 3.76513C12.7265 3.33188 12.0994 3.11525 11.3241 3.11525C10.7009 3.11525 10.1574 3.29007 9.69374 3.63972C9.23009 3.98936 8.90706 4.45302 8.72464 5.03069L9.95597 5.53236C10.0928 5.15231 10.279 4.86727 10.5146 4.67725C10.7503 4.48723 11.0201 4.39221 11.3241 4.39221C11.689 4.39221 11.9854 4.49483 12.2134 4.70005C12.4415 4.90528 12.5555 5.18271 12.5555 5.53236C12.5555 5.74519 12.4947 5.94661 12.373 6.13663C12.2514 6.32666 12.0386 6.56609 11.7346 6.85493C11.2329 7.29578 10.9251 7.64163 10.8111 7.89246C10.6971 8.14329 10.64 8.61835 10.64 9.31764ZM5.85152 14.9728C5.34986 14.9728 4.92041 14.7941 4.56317 14.4369C4.20593 14.0796 4.02731 13.6502 4.02731 13.1485V2.20314C4.02731 1.70147 4.20593 1.27202 4.56317 0.914774C4.92041 0.557529 5.34986 0.378906 5.85152 0.378906H16.7967C17.2984 0.378906 17.7278 0.557529 18.0851 0.914774C18.4423 1.27202 18.6209 1.70147 18.6209 2.20314V13.1485C18.6209 13.6502 18.4423 14.0796 18.0851 14.4369C17.7278 14.7941 17.2984 14.9728 16.7967 14.9728H5.85152ZM5.85152 13.1485H16.7967V2.20314H5.85152V13.1485ZM2.20311 18.6212C1.70145 18.6212 1.27201 18.4426 0.914766 18.0853C0.557526 17.7281 0.378906 17.2986 0.378906 16.797V4.02737H2.20311V16.797H14.9725V18.6212H2.20311Z" fill="#082A45"/>
</svg>
