<svg width="20" height="19" viewBox="0 0 20 19" fill="none" xmlns="http://www.w3.org/2000/svg">
<path d="M4.82208 18.6212C4.33563 18.6212 3.92898 18.4388 3.60215 18.0739C3.27531 17.7091 3.14229 17.2834 3.2031 16.797H6.91992L7.83202 13.1485H9.65622L11.0244 7.67583H4.34323L4.59406 5.62357C4.65486 5.16751 4.86009 4.78746 5.20973 4.48343C5.55936 4.17939 5.96221 4.02737 6.41826 4.02737H8.21966C8.34127 2.88722 8.73272 1.99411 9.39399 1.34803C10.0553 0.701947 10.956 0.378906 12.0961 0.378906C13.069 0.378906 13.8785 0.739952 14.5246 1.46204C15.1706 2.18413 15.4861 3.03924 15.4709 4.02737H17.7967C18.344 4.02737 18.8 4.23259 19.1649 4.64305C19.5297 5.0535 19.6741 5.53236 19.5981 6.07963L18.23 17.025C18.1692 17.4811 17.9677 17.8611 17.6257 18.1652C17.2837 18.4692 16.8846 18.6212 16.4286 18.6212H4.82208ZM0.466797 14.9728L0.922848 13.1485H5.93941L5.48336 14.9728H0.466797ZM2.291 11.3243L2.74705 9.50006H8.67571L8.21966 11.3243H2.291ZM10.0439 4.02737H13.6695C13.6847 3.5257 13.5136 3.09625 13.1564 2.739C12.7992 2.38176 12.3697 2.20314 11.8681 2.20314C11.336 2.20314 10.9142 2.36656 10.6025 2.6934C10.2909 3.02024 10.1047 3.4649 10.0439 4.02737Z" fill="#082A45"/>
</svg>
