<svg width="56" height="55" viewBox="0 0 56 55" fill="none" xmlns="http://www.w3.org/2000/svg">
<g filter="url(#filter0_d_240_1447)">
<path d="M25.4221 11.3485C26.6845 10.2305 27.3157 9.67152 28.074 9.67152C28.8323 9.67152 29.4635 10.2305 30.7259 11.3485L31.6749 12.1889C32.3451 12.7824 32.6802 13.0791 33.0944 13.2064C33.5087 13.3336 33.9526 13.2761 34.8404 13.1612L36.1396 12.993C37.9085 12.7639 38.793 12.6494 39.4356 13.1144C40.0782 13.5793 40.2461 14.4552 40.5818 16.2071L40.6888 16.7659C40.874 17.7322 40.9666 18.2153 41.2545 18.5909C41.5423 18.9664 41.9848 19.1813 42.8698 19.6112L43.4269 19.8817C45.1834 20.7349 46.0617 21.1615 46.3246 21.9708C46.5875 22.7801 46.1276 23.6414 45.2077 25.364L45.1394 25.492C44.6468 26.4144 44.4005 26.8756 44.4005 27.3762C44.4005 27.8767 44.6468 28.3379 45.1394 29.2603L45.2077 29.3884C46.1276 31.1109 46.5875 31.9722 46.3246 32.7815C46.0617 33.5909 45.1834 34.0174 43.4269 34.8706L42.8698 35.1411C41.9848 35.571 41.5423 35.7859 41.2545 36.1615C40.9666 36.537 40.874 37.0202 40.6888 37.9864L40.5818 38.5453C40.2461 40.2971 40.0782 41.173 39.4356 41.638C38.793 42.1029 37.9085 41.9884 36.1396 41.7594L34.8404 41.5911C33.9526 41.4762 33.5087 41.4187 33.0944 41.546C32.6802 41.6732 32.3451 41.97 31.6749 42.5635L30.7259 43.4039C29.4635 44.5218 28.8323 45.0808 28.074 45.0808C27.3157 45.0808 26.6845 44.5218 25.4221 43.4039L24.4731 42.5635C23.803 41.97 23.4679 41.6732 23.0536 41.546C22.6393 41.4187 22.1954 41.4762 21.3076 41.5911L20.0084 41.7594C18.2395 41.9884 17.355 42.1029 16.7124 41.638C16.0698 41.173 15.902 40.2971 15.5663 38.5453L15.4592 37.9864C15.274 37.0202 15.1815 36.537 14.8936 36.1615C14.6057 35.7859 14.1632 35.571 13.2782 35.1411L12.7212 34.8706C10.9646 34.0174 10.0864 33.5909 9.82346 32.7815C9.56055 31.9722 10.0205 31.1109 10.9403 29.3884L11.0087 29.2603C11.5012 28.3379 11.7475 27.8767 11.7475 27.3762C11.7475 26.8756 11.5012 26.4144 11.0087 25.492L10.9403 25.364C10.0205 23.6414 9.56055 22.7801 9.82346 21.9708C10.0864 21.1615 10.9646 20.7349 12.7212 19.8817L13.2782 19.6112C14.1632 19.1813 14.6057 18.9664 14.8936 18.5909C15.1815 18.2153 15.274 17.7322 15.4592 16.7659L15.5663 16.2071C15.902 14.4552 16.0698 13.5793 16.7124 13.1144C17.355 12.6494 18.2395 12.7639 20.0084 12.993L21.3076 13.1612C22.1954 13.2761 22.6393 13.3336 23.0536 13.2064C23.4679 13.0791 23.803 12.7824 24.4731 12.1889L25.4221 11.3485Z" fill="#082A45"/>
<path d="M22.9068 42.0239L23.0536 41.546L22.9068 42.0239C23.1933 42.1119 23.4376 42.3143 24.1417 42.9378L25.0906 43.7782L25.1161 43.8007C25.7256 44.3406 26.2189 44.7774 26.6557 45.0748C27.1102 45.3844 27.556 45.5808 28.074 45.5808C28.592 45.5808 29.0378 45.3844 29.4924 45.0748C29.9292 44.7774 30.4224 44.3406 31.0319 43.8007L31.0574 43.7782L32.0064 42.9378C32.7104 42.3143 32.9548 42.1119 33.2413 42.0239L33.0944 41.546L33.2413 42.0239C33.5278 41.9359 33.8436 41.9663 34.7762 42.087L36.0754 42.2552L36.1103 42.2597C36.9651 42.3704 37.6554 42.4598 38.2108 42.4589C38.7882 42.458 39.2892 42.3611 39.7287 42.0431C40.1683 41.725 40.417 41.2795 40.5984 40.7314C40.773 40.2041 40.904 39.5205 41.0662 38.674L41.0728 38.6394L41.1799 38.0805C41.3745 37.0648 41.4523 36.7253 41.6513 36.4656C41.8503 36.206 42.158 36.0427 43.0882 35.5909L43.6453 35.3203L43.679 35.304C44.5287 34.8913 45.2127 34.5591 45.713 34.2257C46.2321 33.8799 46.6198 33.491 46.8001 32.936C46.9804 32.381 46.8953 31.8385 46.6785 31.2536C46.4696 30.6898 46.1114 30.0191 45.6664 29.1858L45.6488 29.1528L45.5804 29.0248C45.3298 28.5556 45.1583 28.2332 45.0462 27.9664C44.9382 27.7091 44.9005 27.537 44.9005 27.3762C44.9005 27.2153 44.9382 27.0432 45.0462 26.7859C45.1583 26.5191 45.3298 26.1968 45.5804 25.7275L45.6488 25.5995L45.6664 25.5665C46.1114 24.7333 46.4696 24.0625 46.6785 23.4987C46.8953 22.9139 46.9804 22.3713 46.8001 21.8163C46.6198 21.2613 46.2321 20.8724 45.713 20.5266C45.2126 20.1932 44.5286 19.861 43.6789 19.4483L43.6453 19.432L43.0882 19.1614C42.158 18.7096 41.8503 18.5463 41.6513 18.2867C41.4523 18.0271 41.3745 17.6875 41.1799 16.6718L41.0728 16.113L41.0662 16.0784C40.904 15.2319 40.773 14.5482 40.5984 14.021C40.417 13.4729 40.1683 13.0273 39.7287 12.7093C39.2892 12.3912 38.7882 12.2944 38.2108 12.2934C37.6554 12.2925 36.9651 12.3819 36.1104 12.4926L36.0754 12.4971L34.7762 12.6653C33.8436 12.7861 33.5278 12.8164 33.2413 12.7284C32.9548 12.6404 32.7104 12.438 32.0064 11.8145L31.0574 10.9742L31.032 10.9516C30.4224 10.4118 29.9292 9.97497 29.4924 9.67749C29.0378 9.36791 28.592 9.17152 28.074 9.17152C27.556 9.17152 27.1102 9.3679 26.6557 9.67749C26.2189 9.97498 25.7256 10.4118 25.116 10.9517L25.0906 10.9742L24.1417 11.8145C23.4376 12.438 23.1933 12.6404 22.9068 12.7284C22.6203 12.8164 22.3044 12.7861 21.3718 12.6653L20.0726 12.4971L20.0377 12.4926C19.1829 12.3819 18.4926 12.2925 17.9372 12.2934C17.3599 12.2944 16.8589 12.3912 16.4193 12.7093C15.9798 13.0273 15.7311 13.4729 15.5496 14.021C15.375 14.5482 15.244 15.2318 15.0819 16.0783L15.0752 16.113L14.9681 16.6718C14.7735 17.6875 14.6957 18.0271 14.4967 18.2867C14.2977 18.5463 13.99 18.7096 13.0598 19.1614L12.5027 19.432L12.4691 19.4483C11.6194 19.861 10.9354 20.1932 10.435 20.5266C9.91593 20.8724 9.52821 21.2613 9.34793 21.8163C9.16764 22.3713 9.25277 22.9139 9.46952 23.4987C9.67847 24.0625 10.0367 24.7333 10.4816 25.5665L10.4992 25.5995L10.5676 25.7275C10.8182 26.1968 10.9897 26.5191 11.1018 26.7859C11.2099 27.0432 11.2475 27.2153 11.2475 27.3762C11.2475 27.537 11.2099 27.7091 11.1018 27.9664C10.9897 28.2332 10.8182 28.5556 10.5676 29.0248L11.0087 29.2603L10.5676 29.0248L10.4992 29.1528L10.4816 29.1858C10.0367 30.0191 9.67847 30.6898 9.46952 31.2536C9.25277 31.8385 9.16764 32.381 9.34793 32.936C9.52821 33.491 9.91593 33.8799 10.435 34.2257C10.9354 34.5591 11.6194 34.8913 12.4691 35.304L12.5027 35.3203L13.0598 35.5909C13.99 36.0427 14.2977 36.206 14.4967 36.4656C14.6957 36.7253 14.7735 37.0648 14.9681 38.0805L15.0752 38.6394L15.0819 38.674C15.244 39.5205 15.375 40.2041 15.5496 40.7314C15.7311 41.2795 15.9798 41.725 16.4193 42.0431C16.8589 42.3611 17.3599 42.458 17.9372 42.4589C18.4926 42.4598 19.183 42.3704 20.0377 42.2597L20.0726 42.2552L21.3718 42.087C22.3044 41.9663 22.6203 41.9359 22.9068 42.0239Z" stroke="white"/>
</g>
<defs>
<filter id="filter0_d_240_1447" x="0.75" y="0.671875" width="54.6482" height="53.4092" filterUnits="userSpaceOnUse" color-interpolation-filters="sRGB">
<feFlood flood-opacity="0" result="BackgroundImageFix"/>
<feColorMatrix in="SourceAlpha" type="matrix" values="0 0 0 0 0 0 0 0 0 0 0 0 0 0 0 0 0 0 127 0" result="hardAlpha"/>
<feOffset/>
<feGaussianBlur stdDeviation="4"/>
<feComposite in2="hardAlpha" operator="out"/>
<feColorMatrix type="matrix" values="0 0 0 0 0 0 0 0 0 0 0 0 0 0 0 0 0 0 0.16 0"/>
<feBlend mode="normal" in2="BackgroundImageFix" result="effect1_dropShadow_240_1447"/>
<feBlend mode="normal" in="SourceGraphic" in2="effect1_dropShadow_240_1447" result="shape"/>
</filter>
</defs>
</svg>
