<svg width="25" height="24" viewBox="0 0 25 24" fill="none" xmlns="http://www.w3.org/2000/svg">
<path d="M11.3682 22C12.1966 22 12.8682 21.317 12.8682 20.4746C12.8682 19.6321 12.1966 18.9492 11.3682 18.9492C10.5397 18.9492 9.86816 19.6321 9.86816 20.4746C9.86816 21.317 10.5397 22 11.3682 22Z" fill="white"/>
<path d="M18.4277 22C19.2561 22 19.9277 21.317 19.9277 20.4746C19.9277 19.6321 19.2561 18.9492 18.4277 18.9492C17.5992 18.9492 16.9277 19.6321 16.9277 20.4746C16.9277 21.317 17.5992 22 18.4277 22Z" fill="white"/>
<path d="M2.80957 2.06278C4.57428 2.06291 5.75075 1.49781 6.92722 3.75769M6.92722 3.75769H20.0557C21.4147 3.75769 22.378 5.08411 21.9575 6.3765L20.3178 11.416C20.0498 12.2397 19.2821 12.7972 18.416 12.7972H9.86839M6.92722 3.75769L9.86839 12.7972M9.86839 12.7972C8.89377 12.7972 8.10369 13.5873 8.10369 14.5619V14.7746C8.10369 15.8667 8.989 16.752 10.0811 16.752H21.6331" stroke="white" stroke-width="1.8" stroke-linecap="round"/>
</svg>
