<svg width="25" height="24" viewBox="0 0 25 24" fill="none" xmlns="http://www.w3.org/2000/svg">
<path d="M11.9788 13.5397C13.7631 13.5397 15.2096 12.0932 15.2096 10.3089C15.2096 8.52462 13.7631 7.07816 11.9788 7.07816C10.1945 7.07816 8.74805 8.52462 8.74805 10.3089C8.74805 12.0932 10.1945 13.5397 11.9788 13.5397Z" stroke="white" stroke-width="1.47692" stroke-linecap="round"/>
<path d="M11.9784 22.1538C17.3314 22.1538 21.6707 17.8144 21.6707 12.4615C21.6707 7.10862 17.3314 2.76923 11.9784 2.76923C6.62553 2.76923 2.28613 7.10862 2.28613 12.4615C2.28613 17.8144 6.62553 22.1538 11.9784 22.1538Z" stroke="white" stroke-width="1.47692"/>
<path d="M18.4407 19.6833C18.0595 18.5384 17.2197 17.5267 16.0515 16.805C14.8831 16.0834 13.4517 15.6923 11.9791 15.6923C10.5065 15.6923 9.0751 16.0834 7.90682 16.805C6.73854 17.5267 5.89871 18.5384 5.51758 19.6833" stroke="white" stroke-width="1.47692" stroke-linecap="round"/>
</svg>
