<svg width="24" height="24" viewBox="0 0 24 24" fill="none" xmlns="http://www.w3.org/2000/svg">
<path d="M23.8639 22.5396C22.1083 19.3834 19.4029 17.1201 16.2455 16.0472C17.8073 15.0804 19.0207 13.6072 19.6994 11.8538C20.378 10.1004 20.4845 8.16383 20.0023 6.34145C19.5202 4.51906 18.4762 2.91164 17.0305 1.76604C15.5849 0.620441 13.8176 0 12 0C10.1825 0 8.41515 0.620441 6.9695 1.76604C5.52385 2.91164 4.47979 4.51906 3.99765 6.34145C3.51552 8.16383 3.62196 10.1004 4.30065 11.8538C4.97933 13.6072 6.19272 15.0804 7.75448 16.0472C4.59714 17.1189 1.89168 19.3822 0.136065 22.5396C0.071683 22.6488 0.0289793 22.7703 0.0104728 22.8969C-0.00803369 23.0235 -0.00196803 23.1527 0.0283119 23.2768C0.0585918 23.4009 0.112473 23.5175 0.186775 23.6196C0.261078 23.7218 0.354297 23.8074 0.460934 23.8714C0.56757 23.9355 0.685463 23.9767 0.807656 23.9926C0.92985 24.0085 1.05387 23.9988 1.1724 23.964C1.29092 23.9293 1.40156 23.8702 1.49777 23.7903C1.59399 23.7103 1.67384 23.6112 1.7326 23.4986C3.90435 19.5955 7.74296 17.2652 12 17.2652C16.257 17.2652 20.0957 19.5955 22.2674 23.4986C22.3262 23.6112 22.406 23.7103 22.5022 23.7903C22.5984 23.8702 22.7091 23.9293 22.8276 23.964C22.9461 23.9988 23.0702 24.0085 23.1923 23.9926C23.3145 23.9767 23.4324 23.9355 23.5391 23.8714C23.6457 23.8074 23.7389 23.7218 23.8132 23.6196C23.8875 23.5175 23.9414 23.4009 23.9717 23.2768C24.002 23.1527 24.008 23.0235 23.9895 22.8969C23.971 22.7703 23.9283 22.6488 23.8639 22.5396ZM5.54469 8.63422C5.54469 7.30652 5.92329 6.00863 6.63261 4.90469C7.34193 3.80075 8.35011 2.94033 9.52966 2.43224C10.7092 1.92416 12.0072 1.79122 13.2594 2.05024C14.5116 2.30926 15.6618 2.94861 16.5646 3.88743C17.4674 4.82626 18.0822 6.02239 18.3313 7.32458C18.5804 8.62677 18.4525 9.97652 17.9639 11.2032C17.4753 12.4298 16.6479 13.4782 15.5864 14.2158C14.5248 14.9535 13.2767 15.3472 12 15.3472C10.2885 15.3453 8.64764 14.6374 7.43743 13.3789C6.22722 12.1204 5.54652 10.414 5.54469 8.63422Z" fill="white"/>
<path d="M23.427 22.7827L23.4268 22.7828L23.4333 22.7936C23.4644 22.8464 23.4856 22.9061 23.4948 22.9692C23.504 23.0323 23.501 23.0967 23.4859 23.1583C23.4709 23.2199 23.4444 23.2767 23.4089 23.3255C23.3734 23.3742 23.3299 23.4138 23.2816 23.4428C23.2334 23.4718 23.1811 23.4898 23.1278 23.4968C23.0745 23.5037 23.0204 23.4995 22.9683 23.4842C22.9161 23.4689 22.8661 23.4426 22.8217 23.4057C22.7773 23.3687 22.7392 23.3219 22.7106 23.2672L22.7108 23.2671L22.7043 23.2555C20.4497 19.2035 16.4493 16.7652 12 16.7652C7.55071 16.7652 3.5503 19.2035 1.29568 23.2555L1.29553 23.2554L1.28939 23.2672C1.26083 23.3219 1.22273 23.3687 1.17827 23.4057C1.13386 23.4426 1.08392 23.4689 1.03174 23.4842C0.97961 23.4995 0.925461 23.5037 0.872194 23.4968C0.818908 23.4898 0.766605 23.4718 0.718396 23.4428C0.670119 23.4138 0.626565 23.3742 0.591087 23.3255C0.555576 23.2767 0.529091 23.2199 0.514069 23.1583L0.0286412 23.2767L0.514068 23.1583C0.499041 23.0967 0.49599 23.0323 0.505215 22.9692C0.514439 22.9061 0.535616 22.8464 0.566746 22.7936L0.566885 22.7937L0.573058 22.7826C2.27121 19.7285 4.88078 17.5507 7.91519 16.5207L8.91889 16.18L8.01767 15.6221C6.55075 14.714 5.40734 13.3278 4.76693 11.6733C4.12645 10.0186 4.0258 8.18998 4.48102 6.46933C4.93621 4.74882 5.92096 3.23491 7.28004 2.15792C8.63875 1.08121 10.297 0.5 12 0.5C13.703 0.5 15.3613 1.08121 16.72 2.15792C18.079 3.23491 19.0638 4.74882 19.519 6.46933C19.9742 8.18998 19.8735 10.0186 19.2331 11.6733C18.5927 13.3278 17.4493 14.714 15.9823 15.6221L15.0815 16.1798L16.0847 16.5207C19.1192 17.5518 21.7288 19.7297 23.427 22.7827ZM5.04469 8.63422L5.04469 8.63473C5.04665 10.5408 5.77546 12.3719 7.07703 13.7255C8.37923 15.0796 10.1491 15.8451 11.9994 15.8472H12C13.3801 15.8472 14.7275 15.4215 15.8717 14.6264C17.0156 13.8316 17.9044 12.7039 18.4284 11.3882C18.9524 10.0726 19.0893 8.62604 18.8224 7.23065C18.5554 5.83518 17.8962 4.55078 16.925 3.54086C15.9536 2.53073 14.7136 1.84047 13.3607 1.5606C12.0075 1.28071 10.6052 1.42456 9.33186 1.97303C8.05878 2.52141 6.97385 3.44864 6.21196 4.63441C5.45018 5.81998 5.04469 7.21188 5.04469 8.63422Z" stroke="white" stroke-opacity="0.1"/>
</svg>
