<svg width="20" height="24" viewBox="0 0 20 24" fill="none" xmlns="http://www.w3.org/2000/svg">
<path d="M1.37251 8.82252C-0.65647 12.3434 0.633392 17.6866 2.87712 20.9264C3.99709 22.5461 5.13099 24 6.68407 24C6.71334 24 6.74269 23.9995 6.77275 23.9983C7.50243 23.9692 8.02972 23.7445 8.53954 23.5274C9.11192 23.2835 9.7039 23.0313 10.6324 23.0313C11.5158 23.0313 12.0795 23.2753 12.6247 23.5112C13.1619 23.7437 13.7154 23.9841 14.5331 23.9688C16.2825 23.9362 17.3566 22.3673 18.3042 20.9833C19.2931 19.5382 19.7892 18.1351 19.9565 17.5989L19.9633 17.5776C19.9952 17.4823 19.9502 17.3782 19.8588 17.3363C19.8563 17.3351 19.847 17.3313 19.8444 17.3302C19.5363 17.2042 16.834 16.0054 16.8056 12.7379C16.7793 10.0833 18.8329 8.6775 19.2447 8.4227L19.2639 8.41074C19.3085 8.38202 19.3396 8.33646 19.3502 8.28437C19.3607 8.23236 19.3497 8.17822 19.3198 8.13447C17.9023 6.06008 15.7297 5.74745 14.855 5.70984C14.7281 5.69717 14.5971 5.6908 14.4655 5.6908C13.4381 5.6908 12.454 6.07881 11.6633 6.39057C11.1175 6.60579 10.6461 6.79165 10.321 6.79165C9.95562 6.79165 9.48152 6.6035 8.93251 6.38569C8.19835 6.09431 7.36622 5.76413 6.4853 5.76413C6.46429 5.76413 6.4436 5.76437 6.42321 5.76476C4.37495 5.7949 2.43953 6.96673 1.37251 8.82252Z" fill="white"/>
<path d="M14.857 0.000151195C13.6166 0.0506692 12.1287 0.814184 11.2394 1.85586C10.4836 2.73143 9.74523 4.19126 9.93975 5.66273C9.95195 5.7548 10.0269 5.82586 10.1195 5.83302C10.2032 5.83955 10.2887 5.84285 10.3738 5.84293C11.5866 5.84293 12.895 5.17195 13.7885 4.09156C14.7289 2.95073 15.2044 1.48666 15.0606 0.175233C15.0492 0.0724659 14.9588 -0.00386192 14.857 0.000151195Z" fill="white"/>
</svg>
