<svg width="20" height="19" viewBox="0 0 20 19" fill="none" xmlns="http://www.w3.org/2000/svg">
<path d="M11.7694 12.2364C12.0279 12.2364 12.2521 12.1414 12.4421 11.9514C12.6321 11.7613 12.7271 11.5371 12.7271 11.2787C12.7271 11.0203 12.6321 10.796 12.4421 10.606C12.2521 10.416 12.0279 10.321 11.7694 10.321C11.511 10.321 11.2868 10.416 11.0968 10.606C10.9067 10.796 10.8117 11.0203 10.8117 11.2787C10.8117 11.5371 10.9067 11.7613 11.0968 11.9514C11.2868 12.1414 11.511 12.2364 11.7694 12.2364ZM11.0854 9.31764H12.4535C12.4535 8.87678 12.4991 8.55374 12.5903 8.34851C12.6815 8.14329 12.8944 7.87345 13.2288 7.53901C13.6849 7.08295 13.9889 6.71431 14.1409 6.43307C14.2929 6.15184 14.3689 5.8212 14.3689 5.44115C14.3689 4.75706 14.1295 4.19839 13.6506 3.76513C13.1718 3.33188 12.5447 3.11525 11.7694 3.11525C11.1462 3.11525 10.6027 3.29007 10.1391 3.63972C9.6754 3.98936 9.35237 4.45302 9.16995 5.03069L10.4013 5.53236C10.5381 5.15231 10.7243 4.86727 10.9599 4.67725C11.1956 4.48723 11.4654 4.39221 11.7694 4.39221C12.1343 4.39221 12.4307 4.49483 12.6587 4.70005C12.8868 4.90528 13.0008 5.18271 13.0008 5.53236C13.0008 5.74519 12.94 5.94661 12.8184 6.13663C12.6967 6.32666 12.4839 6.56609 12.1799 6.85493C11.6782 7.29578 11.3704 7.64163 11.2564 7.89246C11.1424 8.14329 11.0854 8.61835 11.0854 9.31764ZM6.29683 14.9728C5.79517 14.9728 5.36572 14.7941 5.00848 14.4369C4.65124 14.0796 4.47263 13.6502 4.47263 13.1485V2.20314C4.47263 1.70147 4.65124 1.27202 5.00848 0.914774C5.36572 0.557529 5.79517 0.378906 6.29683 0.378906H17.242C17.7437 0.378906 18.1732 0.557529 18.5304 0.914774C18.8876 1.27202 19.0662 1.70147 19.0662 2.20314V13.1485C19.0662 13.6502 18.8876 14.0796 18.5304 14.4369C18.1732 14.7941 17.7437 14.9728 17.242 14.9728H6.29683ZM6.29683 13.1485H17.242V2.20314H6.29683V13.1485ZM2.64842 18.6212C2.14677 18.6212 1.71732 18.4426 1.36008 18.0853C1.00284 17.7281 0.824219 17.2986 0.824219 16.797V4.02737H2.64842V16.797H15.4178V18.6212H2.64842Z" fill="white"/>
</svg>
