<svg width="21" height="17" viewBox="0 0 21 17" fill="none" xmlns="http://www.w3.org/2000/svg">
<path d="M10.9452 6.76371L7.75287 3.57131L10.9452 0.378906L14.1376 3.57131L10.9452 6.76371ZM0.912109 16.797V13.1485C0.912109 12.6317 1.09073 12.1984 1.44797 11.8488C1.80521 11.4991 2.23466 11.3243 2.73631 11.3243H5.72345C6.02748 11.3243 6.31631 11.4003 6.58994 11.5523C6.86357 11.7043 7.084 11.9096 7.25122 12.168C7.69206 12.7609 8.23553 13.2245 8.8816 13.559C9.52767 13.8934 10.2155 14.0606 10.9452 14.0606C11.6901 14.0606 12.3856 13.8934 13.0317 13.559C13.6777 13.2245 14.2136 12.7609 14.6392 12.168C14.8369 11.9096 15.0687 11.7043 15.3347 11.5523C15.6007 11.4003 15.8782 11.3243 16.167 11.3243H19.1541C19.671 11.3243 20.1042 11.4991 20.4539 11.8488C20.8035 12.1984 20.9783 12.6317 20.9783 13.1485V16.797H14.5936V14.7219C14.0616 15.102 13.4877 15.3908 12.872 15.5884C12.2564 15.7861 11.6141 15.8849 10.9452 15.8849C10.2916 15.8849 9.65308 15.7823 9.02981 15.577C8.40654 15.3718 7.82888 15.0792 7.29682 14.6991V16.797H0.912109ZM3.64841 10.4122C2.88833 10.4122 2.24226 10.1461 1.7102 9.61407C1.17814 9.08201 0.912109 8.43593 0.912109 7.67583C0.912109 6.90053 1.17814 6.25065 1.7102 5.72618C2.24226 5.20172 2.88833 4.93948 3.64841 4.93948C4.4237 4.93948 5.07357 5.20172 5.59803 5.72618C6.12249 6.25065 6.38472 6.90053 6.38472 7.67583C6.38472 8.43593 6.12249 9.08201 5.59803 9.61407C5.07357 10.1461 4.4237 10.4122 3.64841 10.4122ZM18.242 10.4122C17.482 10.4122 16.8359 10.1461 16.3038 9.61407C15.7718 9.08201 15.5057 8.43593 15.5057 7.67583C15.5057 6.90053 15.7718 6.25065 16.3038 5.72618C16.8359 5.20172 17.482 4.93948 18.242 4.93948C19.0173 4.93948 19.6672 5.20172 20.1917 5.72618C20.7161 6.25065 20.9783 6.90053 20.9783 7.67583C20.9783 8.43593 20.7161 9.08201 20.1917 9.61407C19.6672 10.1461 19.0173 10.4122 18.242 10.4122Z" fill="white"/>
</svg>
