<svg width="20" height="19" viewBox="0 0 20 19" fill="none" xmlns="http://www.w3.org/2000/svg">
<path d="M10 18.3832L8.55 17.0832C6.86667 15.5665 5.475 14.2582 4.375 13.1582C3.275 12.0582 2.4 11.0707 1.75 10.1957C1.1 9.3207 0.645833 8.51654 0.3875 7.7832C0.129167 7.04987 0 6.29987 0 5.5332C0 3.96654 0.525 2.6582 1.575 1.6082C2.625 0.558203 3.93333 0.0332031 5.5 0.0332031C6.36667 0.0332031 7.19167 0.216536 7.975 0.583203C8.75833 0.94987 9.43333 1.46654 10 2.1332C10.5667 1.46654 11.2417 0.94987 12.025 0.583203C12.8083 0.216536 13.6333 0.0332031 14.5 0.0332031C16.0667 0.0332031 17.375 0.558203 18.425 1.6082C19.475 2.6582 20 3.96654 20 5.5332C20 6.29987 19.8708 7.04987 19.6125 7.7832C19.3542 8.51654 18.9 9.3207 18.25 10.1957C17.6 11.0707 16.725 12.0582 15.625 13.1582C14.525 14.2582 13.1333 15.5665 11.45 17.0832L10 18.3832Z" fill="white"/>
</svg>
