<svg width="56" height="51" viewBox="0 0 56 51" fill="none" xmlns="http://www.w3.org/2000/svg">
<g filter="url(#filter0_d_2_3289)">
<path d="M25.1575 3.37874C26.4993 2.01614 27.1701 1.33484 28.0076 1.33484C28.8451 1.33484 29.516 2.01614 30.8577 3.37874L31.5437 4.07531C32.2433 4.78578 32.5931 5.14102 33.0474 5.29303C33.5018 5.44504 33.995 5.37182 34.9813 5.22537L35.9214 5.08577C37.7559 4.8134 38.6731 4.67721 39.3344 5.1583C39.9957 5.63938 40.1486 6.55396 40.4542 8.38313L40.6825 9.74939C40.8384 10.6822 40.9163 11.1487 41.1792 11.5215C41.4421 11.8944 41.8552 12.1245 42.6815 12.5847L43.8488 13.2348C45.3902 14.0933 46.1609 14.5226 46.4034 15.2706C46.6458 16.0187 46.2734 16.8184 45.5286 18.4179L44.8531 19.8684C44.4664 20.6988 44.273 21.1141 44.273 21.5569C44.273 21.9998 44.4664 22.415 44.8531 23.2455L45.5286 24.6959C46.2734 26.2954 46.6458 27.0952 46.4034 27.8432C46.1609 28.5912 45.3902 29.0205 43.8488 29.879L42.6815 30.5292C41.8552 30.9894 41.4421 31.2195 41.1792 31.5923C40.9163 31.9652 40.8384 32.4316 40.6825 33.3644L40.4542 34.7307C40.1486 36.5599 39.9957 37.4745 39.3344 37.9555C38.6731 38.4366 37.7559 38.3004 35.9214 38.0281L34.9813 37.8885C33.995 37.742 33.5018 37.6688 33.0474 37.8208C32.5931 37.9728 32.2433 38.328 31.5437 39.0385L30.8577 39.7351C29.516 41.0977 28.8451 41.779 28.0076 41.779C27.1701 41.779 26.4993 41.0977 25.1575 39.7351L24.4716 39.0385C23.7719 38.328 23.4221 37.9728 22.9678 37.8208C22.5134 37.6688 22.0203 37.742 21.034 37.8885L20.0938 38.0281C18.2594 38.3004 17.3422 38.4366 16.6808 37.9555C16.0195 37.4745 15.8667 36.5599 15.561 34.7307L15.3327 33.3644C15.1768 32.4316 15.0989 31.9652 14.836 31.5923C14.5731 31.2195 14.16 30.9894 13.3337 30.5292L12.1664 29.879C10.625 29.0205 9.85429 28.5912 9.61186 27.8432C9.36943 27.0952 9.74184 26.2954 10.4867 24.6959L11.1621 23.2455C11.5488 22.415 11.7422 21.9998 11.7422 21.5569C11.7422 21.1141 11.5488 20.6988 11.1621 19.8684L10.4867 18.4179C9.74184 16.8184 9.36943 16.0187 9.61186 15.2706C9.85429 14.5226 10.625 14.0933 12.1664 13.2348L13.3337 12.5847C14.16 12.1245 14.5731 11.8944 14.836 11.5215C15.0989 11.1487 15.1768 10.6822 15.3327 9.74939L15.561 8.38313C15.8667 6.55396 16.0195 5.63938 16.6808 5.1583C17.3422 4.67721 18.2594 4.8134 20.0938 5.08577L21.034 5.22537C22.0203 5.37182 22.5134 5.44504 22.9678 5.29303C23.4221 5.14102 23.7719 4.78578 24.4716 4.07531L25.1575 3.37874Z" fill="#6FB0E8"/>
<path d="M31.8999 3.72449L31.214 3.02792L31.1881 3.00164C30.5392 2.34266 30.0165 1.81178 29.5496 1.45041C29.065 1.07536 28.5815 0.834838 28.0076 0.834838C27.4337 0.834838 26.9502 1.07536 26.4656 1.45041C25.9987 1.81177 25.476 2.34263 24.8272 3.00157L24.8012 3.02792L24.1153 3.72449C23.3798 4.47139 23.1232 4.71379 22.8091 4.81886C22.4951 4.92393 22.1443 4.88475 21.1074 4.73079L20.1672 4.59119L20.1314 4.58588C19.2446 4.45419 18.5294 4.34799 17.9547 4.33954C17.3579 4.33077 16.8395 4.42456 16.3867 4.75396C15.9339 5.08336 15.685 5.54765 15.5096 6.11825C15.3407 6.66761 15.2216 7.38076 15.0738 8.26499L15.0678 8.30072L14.8395 9.66699C14.6757 10.6473 14.6091 10.9756 14.4274 11.2334C14.2456 11.4912 13.9587 11.6642 13.0904 12.1478L11.9232 12.798L11.8926 12.815C11.1478 13.2298 10.5462 13.5649 10.1043 13.8925C9.64477 14.2331 9.302 14.605 9.13621 15.1165C8.97043 15.628 9.02994 16.1302 9.20228 16.6756C9.36802 17.2002 9.65875 17.8245 10.0186 18.5972L10.0334 18.629L10.7088 20.0794C11.1151 20.952 11.2422 21.2507 11.2422 21.5569C11.2422 21.8631 11.1151 22.1619 10.7088 23.0344L10.0334 24.4849L10.0186 24.5166C9.65875 25.2894 9.36802 25.9137 9.20228 26.4382C9.02994 26.9836 8.97043 27.4858 9.13621 27.9974C9.302 28.5089 9.64477 28.8807 10.1043 29.2214C10.5462 29.5489 11.1478 29.884 11.8926 30.2988L11.9232 30.3158L13.0904 30.966C13.9587 31.4496 14.2456 31.6226 14.4274 31.8804C14.6091 32.1382 14.6757 32.4666 14.8395 33.4468L15.0678 34.8131L15.0738 34.8488C15.2216 35.7331 15.3407 36.4462 15.5096 36.9956C15.685 37.5662 15.9339 38.0305 16.3867 38.3599C16.8395 38.6893 17.3579 38.7831 17.9547 38.7743C18.5294 38.7658 19.2446 38.6596 20.1314 38.528L20.1672 38.5226L21.1074 38.383C22.1443 38.2291 22.4951 38.1899 22.8091 38.295C23.1232 38.4 23.3798 38.6424 24.1153 39.3893L24.8012 40.0859L24.8271 40.1122C25.476 40.7712 25.9987 41.3021 26.4656 41.6634C26.9502 42.0385 27.4337 42.279 28.0076 42.279C28.5815 42.279 29.065 42.0385 29.5496 41.6634C30.0165 41.3021 30.5392 40.7712 31.1881 40.1122L31.214 40.0859L31.8999 39.3893C32.6354 38.6424 32.892 38.4 33.2061 38.295C33.5201 38.1899 33.871 38.2291 34.9078 38.383L35.848 38.5226L35.8839 38.528C36.7706 38.6596 37.4858 38.7658 38.0605 38.7743C38.6574 38.7831 39.1757 38.6893 39.6285 38.3599C40.0813 38.0305 40.3302 37.5662 40.5056 36.9956C40.6745 36.4463 40.7937 35.7331 40.9414 34.849L40.9474 34.8131L41.1757 33.4468C41.3395 32.4666 41.4061 32.1382 41.5879 31.8804C41.7696 31.6226 42.0565 31.4496 42.9248 30.966L44.0921 30.3158L44.1227 30.2988C44.8674 29.884 45.4691 29.5489 45.911 29.2213C46.3704 28.8807 46.7132 28.5089 46.879 27.9974C47.0448 27.4858 46.9853 26.9836 46.8129 26.4382C46.6472 25.9137 46.3565 25.2893 45.9966 24.5166L45.9818 24.4849L45.3064 23.0344C44.9001 22.1619 44.773 21.8631 44.773 21.5569C44.773 21.2507 44.9001 20.952 45.3064 20.0794L45.9818 18.629L45.9966 18.5972C46.3565 17.8244 46.6472 17.2002 46.8129 16.6756C46.9853 16.1302 47.0448 15.628 46.879 15.1165C46.7132 14.605 46.3704 14.2331 45.911 13.8925C45.4691 13.5649 44.8674 13.2298 44.1227 12.815L44.0921 12.798L42.9248 12.1478C42.0565 11.6642 41.7696 11.4912 41.5879 11.2334C41.4061 10.9756 41.3395 10.6473 41.1757 9.66699L40.9474 8.30072L40.9414 8.26485C40.7937 7.38068 40.6745 6.66758 40.5056 6.11825C40.3302 5.54765 40.0813 5.08336 39.6285 4.75396C39.1757 4.42456 38.6574 4.33077 38.0605 4.33954C37.4858 4.34799 36.7706 4.45419 35.8838 4.58588L35.848 4.59119L34.9078 4.73079C33.871 4.88475 33.5201 4.92393 33.2061 4.81886C32.892 4.71379 32.6354 4.47139 31.8999 3.72449Z" stroke="white"/>
</g>
<defs>
<filter id="filter0_d_2_3289" x="0.538086" y="-7.66602" width="54.9395" height="58.4453" filterUnits="userSpaceOnUse" color-interpolation-filters="sRGB">
<feFlood flood-opacity="0" result="BackgroundImageFix"/>
<feColorMatrix in="SourceAlpha" type="matrix" values="0 0 0 0 0 0 0 0 0 0 0 0 0 0 0 0 0 0 127 0" result="hardAlpha"/>
<feOffset/>
<feGaussianBlur stdDeviation="4"/>
<feComposite in2="hardAlpha" operator="out"/>
<feColorMatrix type="matrix" values="0 0 0 0 0 0 0 0 0 0 0 0 0 0 0 0 0 0 0.16 0"/>
<feBlend mode="normal" in2="BackgroundImageFix" result="effect1_dropShadow_2_3289"/>
<feBlend mode="normal" in="SourceGraphic" in2="effect1_dropShadow_2_3289" result="shape"/>
</filter>
</defs>
</svg>
